<mxfile host="app.diagrams.net" modified="2023-12-17T22:33:44.990Z" agent="Mozilla/5.0 (Macintosh; Intel Mac OS X 10_15_7) AppleWebKit/537.36 (KHTML, like Gecko) Chrome/119.0.0.0 Safari/537.36" version="22.1.11" etag="zUXgaZh5-SA4zEj7DJAt" type="github">
  <diagram name="Strona-1" id="uouljrREw3NxflONK2YJ">
    <mxGraphModel>
      <root>
        <mxCell id="0" />
        <mxCell id="1" parent="0" />
      </root>
    </mxGraphModel>
  </diagram>
</mxfile>
